PathFileType	4	(X/Y/Z)	C:/Users/opensim2020/Desktop/walking_exp_matlab/subject06_walking13_straight_01.trc																																																																																																																																																				
DataRate	CameraRate	NumFrames	NumMarkers	Units	OrigDataRate	OrigDataStartFrame	OrigNumFrames																																																																																																																																																
100	100	8	50	mm	100	950	163																																																																																																																																																
Frame#	Time	LFHD			RFHD			LBHD			RBHD			C7			T10			CLAV			STRN			RBAK			LSHO			LUPA			LELB			LFRM			LWRA			LWRB			LFIN			RSHO			RUPA			RELB			RFRM			RWRA			RWRB			RFIN			LASI			RASI			LPSI			RPSI			LTHI			LKNE			LTIB			LANK			LHEE			LTOE			RTHI			RKNE			RTIB			RANK			RHEE			RTOE			*39			*40			*41			*42			*43			*44			*45			*46			*47			*48			*49		
		X1	Y1	Z1	X2	Y2	Z2	X3	Y3	Z3	X4	Y4	Z4	X5	Y5	Z5	X6	Y6	Z6	X7	Y7	Z7	X8	Y8	Z8	X9	Y9	Z9	X10	Y10	Z10	X11	Y11	Z11	X12	Y12	Z12	X13	Y13	Z13	X14	Y14	Z14	X15	Y15	Z15	X16	Y16	Z16	X17	Y17	Z17	X18	Y18	Z18	X19	Y19	Z19	X20	Y20	Z20	X21	Y21	Z21	X22	Y22	Z22	X23	Y23	Z23	X24	Y24	Z24	X25	Y25	Z25	X26	Y26	Z26	X27	Y27	Z27	X28	Y28	Z28	X29	Y29	Z29	X30	Y30	Z30	X31	Y31	Z31	X32	Y32	Z32	X33	Y33	Z33	X34	Y34	Z34	X35	Y35	Z35	X36	Y36	Z36	X37	Y37	Z37	X38	Y38	Z38	X39	Y39	Z39	X40	Y40	Z40	X41	Y41	Z41	X42	Y42	Z42	X43	Y43	Z43	X44	Y44	Z44	X45	Y45	Z45	X46	Y46	Z46	X47	Y47	Z47	X48	Y48	Z48	X49	Y49	Z49	X50	Y50	Z50
																																																																																																																																																							
102	1.01	199.28145	1664.91956	-1046.26404	186.98212	1651.21545	-915.44092	63.70966	1621.17322	-1060.30786	53.2492	1612.01697	-931.70355	50.32045	1456.92932	-1001.25012	14.97952	1126.97229	-990.14136	159.78775	1378.12952	-998.9458	201.10062	1204.47278	-1004.57751	-23.1172	1285.64539	-920.66235	102.24532	1408.58398	-1161.36731	104.76407	1204.46143	-1228.11755	106.55821	1091.23328	-1236.74988	156.99918	949.38232	-1259.36646	247.29585	854.69861	-1222.67041	186.29991	833.896	-1252.72034	247.15399	766.83893	-1258.15002	115.12619	1410.92432	-837.83496	73.50511	1212.18311	-751.15338	80.36982	1089.76941	-740.2619	93.73428	969.79956	-725.01434	148.63211	829.74054	-759.89709	95.85135	831.7489	-717.92499	131.84126	755.39819	-717.31183	191.11568	966.51276	-1100.94995	197.15712	977.89508	-881.89148	34.02	990.06891	-1068.83411	45.6455	1000.29559	-901.53308	148.5387	645.24738	-1158.27747	172.69919	483.95456	-1143.39136	-11.88421	321.93863	-1130.49841	-136.13251	204.06056	-1090.70557	-169.84273	219.58191	-1040.15112	-67.55036	76.54078	-1099.02942	162.84966	640.42896	-828.49713	172.9796	515.95551	-856.67255	131.35931	250.76064	-863.43616	121.47263	67.34122	-916.80267	81.33536	44.05706	-961.31201	274.56921	33.0218	-918.65656	97.50179	1709.81445	-995.04663	NaN	NaN	NaN	NaN	NaN	NaN	NaN	NaN	NaN	NaN	NaN	NaN	NaN	NaN	NaN	NaN	NaN	NaN	NaN	NaN	NaN	NaN	NaN	NaN	NaN	NaN	NaN	NaN	NaN	NaN
103	1.02	209.92152	1665.16016	-1046.25012	197.94856	1651.89526	-915.38446	74.1667	1621.70935	-1059.79993	64.02705	1612.79919	-931.14197	60.77584	1457.53113	-1000.13855	25.44106	1127.55237	-988.8385	170.23866	1378.71716	-998.24677	211.4785	1204.97351	-1003.57416	-12.34454	1286.54639	-918.84912	112.08486	1409.01074	-1160.45032	112.42226	1204.74207	-1227.10706	113.01131	1091.57422	-1235.52869	158.94939	948.14563	-1258.30115	246.46832	850.43469	-1221.79578	184.72212	831.66064	-1251.5321	243.21243	762.79144	-1257.60474	126.45081	1411.54407	-837.04156	87.73592	1212.44409	-749.38074	95.97505	1090.25769	-738.55695	111.6478	970.59155	-723.4187	168.49146	831.10992	-759.1889	116.99833	832.61371	-716.703	154.04749	757.05804	-716.29016	201.88446	967.64496	-1099.45422	207.02682	977.82129	-880.35876	44.58521	990.92847	-1068.15393	55.68154	1000.66882	-900.71936	164.04842	646.94476	-1158.25598	191.39943	486.22519	-1143.19727	10.55578	320.47757	-1129.82703	-110.5013	199.42877	-1089.85339	-144.89326	213.40717	-1039.10803	-36.85168	75.54611	-1099.8645	169.1718	640.03912	-828.37671	178.16853	515.54883	-856.35529	133.32942	250.70282	-863.37012	121.83591	67.49397	-917.0733	82.4255	43.79516	-962.13312	274.98865	32.59539	-918.62317	108.43171	1710.52148	-994.89777	NaN	NaN	NaN	NaN	NaN	NaN	NaN	NaN	NaN	NaN	NaN	NaN	NaN	NaN	NaN	NaN	NaN	NaN	NaN	NaN	NaN	NaN	NaN	NaN	NaN	NaN	NaN	NaN	NaN	NaN
104	1.03	220.54688	1665.39465	-1046.3075	208.9536	1652.50073	-915.28308	84.65173	1622.16333	-1059.16199	74.88496	1613.61731	-930.50293	71.15827	1457.99438	-999.04138	35.8034	1128.0249	-987.67798	180.63	1379.12964	-997.55023	221.85561	1205.39893	-1002.63965	-1.57844	1287.24939	-917.19543	121.94255	1409.38416	-1159.62512	119.89322	1204.89197	-1225.97205	119.34289	1091.86877	-1234.22656	161.46442	947.19989	-1257.01306	245.34685	846.43878	-1220.8031	182.90079	829.79181	-1250.55054	239.14017	759.16357	-1257.05969	137.63855	1412.10193	-836.32996	101.60976	1212.78113	-748.03644	111.49428	1090.69519	-736.91711	129.55228	971.3783	-721.89935	188.38358	832.98212	-758.646	137.80156	833.6261	-715.22034	176.31793	758.8537	-715.28448	212.66451	968.66071	-1097.91736	216.62498	977.60193	-878.78058	55.25418	991.72528	-1067.48401	65.5256	1000.94977	-899.85626	179.41521	648.54797	-1158.32483	209.96686	488.46338	-1142.86731	33.46687	318.26477	-1129.15112	-84.03163	193.76454	-1089.099	-119.02587	206.16522	-1038.20581	-5.41319	73.60367	-1100.39709	175.16824	639.70068	-828.18152	183.40244	515.18756	-855.74078	135.81764	250.68887	-863.11261	122.08113	67.64333	-917.13184	80.88428	44.78361	-961.08264	275.32935	32.26477	-918.46033	119.16328	1710.89185	-994.74683	NaN	NaN	NaN	NaN	NaN	NaN	NaN	NaN	NaN	NaN	NaN	NaN	NaN	NaN	NaN	NaN	NaN	NaN	NaN	NaN	NaN	NaN	NaN	NaN	NaN	NaN	NaN	NaN	NaN	NaN
105	1.04	231.1925	1665.55444	-1046.23413	220.14888	1653.02258	-915.2572	95.16667	1622.52942	-1058.60278	85.94291	1614.28003	-929.89276	81.703	1458.39465	-998.06836	45.97886	1128.41296	-986.63513	191.01367	1379.52051	-996.86578	232.1259	1205.6825	-1001.69025	9.04647	1287.83105	-915.69653	132.02461	1409.73279	-1158.86987	128.01501	1205.23596	-1225.03198	125.60324	1092.16443	-1233.18042	163.50644	946.35486	-1255.94434	244.14983	842.75952	-1219.75525	181.13345	828.27667	-1249.44019	234.90999	755.93549	-1256.38684	148.72267	1412.55945	-835.65009	115.76585	1212.98096	-746.44611	127.02065	1091.17285	-735.34692	147.45734	972.24945	-720.44806	208.90572	835.28601	-757.86536	158.75435	834.80078	-713.84625	198.78935	760.81824	-714.37793	223.49931	969.55188	-1096.49109	226.46347	977.44879	-877.35583	65.84495	992.42194	-1066.91443	75.49993	1001.08044	-899.38	194.69295	650.16504	-1158.36206	228.22995	490.69031	-1142.39709	56.87269	315.42581	-1128.65479	-56.80748	187.18161	-1088.41785	-92.30267	198.02696	-1037.35547	26.85284	71.06843	-1100.88855	181.44536	639.52625	-827.84296	188.19104	514.8288	-854.98431	138.26115	250.72768	-862.79077	122.33938	67.76621	-917.11194	80.9459	45.07324	-961.05396	275.54028	31.97889	-918.25281	130.26691	1711.53027	-994.34662	NaN	NaN	NaN	NaN	NaN	NaN	NaN	NaN	NaN	NaN	NaN	NaN	NaN	NaN	NaN	NaN	NaN	NaN	NaN	NaN	NaN	NaN	NaN	NaN	NaN	NaN	NaN	NaN	NaN	NaN
106	1.05	241.8279	1665.47986	-1046.22864	231.06972	1653.28662	-915.13702	105.60635	1622.84326	-1057.99707	96.8373	1614.85522	-929.19452	92.20979	1458.76978	-997.21143	56.23023	1128.73975	-985.69141	201.34802	1379.71558	-996.25824	242.40703	1205.91663	-1000.80048	19.65052	1288.34241	-914.40826	142.07762	1409.89063	-1158.11414	135.79529	1205.55933	-1224.39221	131.92119	1092.51074	-1232.1626	165.82352	945.69952	-1254.87939	243.01546	839.4162	-1218.63269	179.44418	827.17712	-1248.36377	230.78886	753.0484	-1255.63818	159.76599	1412.95117	-835.04877	129.79243	1213.23108	-745.10846	142.41988	1091.62756	-733.7981	165.26244	973.16107	-719.05676	228.82471	837.53015	-757.33221	179.47578	836.29633	-712.27771	221.26366	763.04156	-713.40869	234.3037	970.3197	-1095.10791	236.21362	977.40204	-875.94946	76.46872	992.95526	-1066.46155	85.18737	1001.12842	-898.74976	210.3947	651.79401	-1158.14233	246.32396	492.92209	-1141.93335	80.46897	311.99942	-1128.23242	-28.79855	179.88153	-1087.78943	-64.70318	189.04471	-1036.79834	59.79676	68.1016	-1101.18604	188.01019	639.32996	-827.47192	193.2851	514.34406	-854.26318	140.72165	250.8049	-862.4483	122.6793	67.92548	-917.10345	81.09789	45.35135	-961.00983	275.70236	31.89545	-917.84058	141.07832	1711.85889	-994.04639	NaN	NaN	NaN	NaN	NaN	NaN	NaN	NaN	NaN	NaN	NaN	NaN	NaN	NaN	NaN	NaN	NaN	NaN	NaN	NaN	NaN	NaN	NaN	NaN	NaN	NaN	NaN	NaN	NaN	NaN
107	1.06	252.42734	1665.37341	-1046.18994	242.09612	1653.35815	-915.0481	116.11223	1623.07947	-1057.396	107.70557	1615.32495	-928.58173	102.58994	1459.05127	-996.33014	66.50282	1128.96338	-984.78577	211.74449	1379.88062	-995.69543	252.69066	1206.04993	-999.93121	30.14742	1288.80334	-913.10242	152.20116	1410.00513	-1157.43945	143.41386	1205.52673	-1223.23535	138.25	1092.90405	-1231.29077	168.14557	945.1499	-1253.86743	241.78326	836.38678	-1217.4231	178.08449	826.20752	-1247.39307	226.85445	750.54749	-1254.76331	170.60703	1413.25549	-834.52332	143.49205	1213.42419	-743.91644	157.74864	1092.08667	-732.38538	183.06432	974.13928	-717.75525	249.17216	839.94824	-756.62451	200.41451	837.49609	-711.27802	243.59398	765.46808	-712.44812	245.10887	970.90302	-1093.6897	245.93033	977.35706	-874.7301	87.18196	993.33728	-1066.09094	94.95076	1000.99933	-898.35107	224.31726	653.65344	-1158.68555	264.08975	495.1651	-1141.39404	104.08511	308.21304	-1127.92029	0.00551	172.04587	-1087.1748	-36.25998	179.37189	-1036.15125	94.18604	65.2152	-1101.50574	194.83131	639.09052	-827.07306	198.73257	513.99023	-853.54443	143.13412	250.84888	-862.2749	123.03528	68.13171	-917.15155	81.30789	45.72681	-961.06586	275.95187	31.69026	-917.61682	151.93945	1711.97607	-993.76678	NaN	NaN	NaN	NaN	NaN	NaN	NaN	NaN	NaN	NaN	NaN	NaN	NaN	NaN	NaN	NaN	NaN	NaN	NaN	NaN	NaN	NaN	NaN	NaN	NaN	NaN	NaN	NaN	NaN	NaN
108	1.07	263.04681	1665.27283	-1045.96533	253.24512	1653.21362	-914.88776	126.57404	1623.1947	-1056.7655	118.6617	1615.64429	-927.93256	113.0622	1459.10791	-995.61426	76.64667	1129.09949	-983.90295	222.13588	1379.88342	-995.10699	262.89346	1206.0481	-999.13721	40.59335	1289.0481	-911.88818	162.35361	1409.94946	-1156.69727	151.35304	1205.64014	-1222.53894	144.65901	1093.20532	-1230.52954	170.82536	944.80121	-1253.01111	240.75507	833.74994	-1216.13354	176.90747	825.59241	-1246.52356	223.11703	748.33881	-1253.69214	181.33456	1413.48328	-834.01489	157.17502	1213.66077	-742.75421	172.96996	1092.5426	-731.11829	200.66545	975.17462	-716.50616	269.52106	842.49573	-755.81512	221.22655	839.00366	-710.14655	265.96008	767.99237	-711.51135	256.01663	971.40222	-1092.28857	255.33904	977.06238	-873.69177	97.82539	993.59119	-1065.82227	104.66273	1000.76062	-898.00055	238.71225	654.91699	-1158.64636	281.50131	497.34241	-1140.83765	127.91801	304.1893	-1127.47131	29.58413	163.65327	-1086.64014	-7.03107	169.20053	-1035.51318	128.80756	61.83522	-1101.68079	201.95395	638.66449	-826.77649	204.0334	513.39978	-852.73676	145.40088	250.85846	-862.20154	123.38055	68.48691	-917.21741	81.55205	46.16224	-961.23572	276.14172	31.4414	-917.40125	162.87917	1712.08215	-993.37653	NaN	NaN	NaN	NaN	NaN	NaN	NaN	NaN	NaN	NaN	NaN	NaN	NaN	NaN	NaN	NaN	NaN	NaN	NaN	NaN	NaN	NaN	NaN	NaN	NaN	NaN	NaN	NaN	NaN	NaN
109	1.08	273.78903	1664.84375	-1045.93298	264.22733	1653.04358	-914.72693	137.08884	1623.24597	-1056.27612	129.55777	1615.72473	-927.3186	123.5798	1459.05652	-994.97412	86.83699	1129.05444	-983.05786	232.4958	1379.78882	-994.59497	273.17795	1205.93689	-998.3233	50.95467	1289.22461	-910.74176	172.53592	1409.79993	-1156.07825	159.80797	1205.82874	-1222.35461	151.07253	1093.48621	-1229.89685	173.58513	944.50397	-1252.12476	240.42532	831.74048	-1214.9834	176.17407	825.1604	-1245.74097	219.77864	746.31915	-1252.37158	191.94853	1413.59326	-833.56726	170.44321	1213.83472	-741.77228	188.08377	1092.98157	-729.9549	218.14951	976.23883	-715.36194	289.80042	845.20001	-754.97833	241.71518	840.81635	-708.84381	288.25208	770.70862	-710.57977	266.83545	971.72839	-1090.9563	265.01755	976.80365	-872.52435	108.46738	993.69208	-1065.55615	113.844	1000.52106	-897.56567	254.98763	657.53491	-1158.92114	298.40417	499.41092	-1140.22302	151.76297	299.86374	-1126.96997	60.05035	154.91455	-1086.39685	23.0646	158.69891	-1035.00415	163.94473	58.34057	-1101.88293	209.09447	638.15186	-826.63452	209.69868	512.71045	-852.52472	147.69028	250.87843	-862.25897	123.86581	68.76938	-917.4021	82.36862	46.56644	-961.84418	276.38034	31.23364	-917.18774	173.8576	1712.06482	-993.01031	NaN	NaN	NaN	NaN	NaN	NaN	NaN	NaN	NaN	NaN	NaN	NaN	NaN	NaN	NaN	NaN	NaN	NaN	NaN	NaN	NaN	NaN	NaN	NaN	NaN	NaN	NaN	NaN	NaN	NaN
